<?xml version="1.0" encoding="utf-8"?>
<svg id="Layer_1" data-name="Layer 1" xmlns="http://www.w3.org/2000/svg" viewBox="0 0 102.38 23.53"><defs><style>.cls-1{fill:#005e8a;}</style></defs><title>logo</title><path class="cls-1" d="M15.83,7.35A4.85,4.85,0,0,0,14,6a5.34,5.34,0,0,0-2.32-.55,5.73,5.73,0,0,0-1.39.17,4.25,4.25,0,0,0-1.26.54,3,3,0,0,0-.93.95,2.61,2.61,0,0,0-.36,1.41,2.51,2.51,0,0,0,.32,1.3,2.87,2.87,0,0,0,.87.92,5.88,5.88,0,0,0,1.34.66q0.79,0.28,1.74.57t2.23,0.79a8.68,8.68,0,0,1,2.12,1.17A5.81,5.81,0,0,1,18,15.73a5.6,5.6,0,0,1,.62,2.75,7,7,0,0,1-.66,3.15,6.49,6.49,0,0,1-1.77,2.23,7.55,7.55,0,0,1-2.59,1.33,10.92,10.92,0,0,1-3.13.44,11.76,11.76,0,0,1-4.27-.81,8.25,8.25,0,0,1-3.42-2.39l2.85-2.66a5.72,5.72,0,0,0,2.2,1.8,6.19,6.19,0,0,0,2.7.66,6.1,6.1,0,0,0,1.42-.17,3.79,3.79,0,0,0,1.31-.59,3.28,3.28,0,0,0,.95-1,3,3,0,0,0,.36-1.53,2.5,2.5,0,0,0-.41-1.47,3.69,3.69,0,0,0-1.11-1,8,8,0,0,0-1.64-.74l-2-.66a19.51,19.51,0,0,1-2-.76A6.7,6.7,0,0,1,5.53,13.1a5.64,5.64,0,0,1-1.31-1.79,6.11,6.11,0,0,1-.51-2.64,5.79,5.79,0,0,1,.71-2.94,6.29,6.29,0,0,1,1.87-2,8.31,8.31,0,0,1,2.63-1.2,11.46,11.46,0,0,1,3-.4,10.66,10.66,0,0,1,3.46.6,8.46,8.46,0,0,1,3.05,1.8Z" transform="translate(-2.73 -2.1)"/><path class="cls-1" d="M21.3,2.67h4V25.06h-4V2.67Z" transform="translate(-2.73 -2.1)"/><path class="cls-1" d="M28.32,2.67h7.94a17.6,17.6,0,0,1,4.4.57,11.4,11.4,0,0,1,4,1.88,9.86,9.86,0,0,1,2.88,3.45,11.43,11.43,0,0,1,1.11,5.3,10.8,10.8,0,0,1-1.11,5.06,10.36,10.36,0,0,1-2.88,3.48,12,12,0,0,1-4,2,15.58,15.58,0,0,1-4.4.65H28.32V2.67Zm7.31,18.91a13.52,13.52,0,0,0,3.1-.36A8.07,8.07,0,0,0,41.53,20a6.56,6.56,0,0,0,2-2.36,8,8,0,0,0,.79-3.76,8.48,8.48,0,0,0-.79-3.92,6.36,6.36,0,0,0-2-2.37,7.6,7.6,0,0,0-2.8-1.17,15.5,15.5,0,0,0-3.1-.32H32.31v15.5h3.32Z" transform="translate(-2.73 -2.1)"/><path class="cls-1" d="M51.22,2.67h4V21.52h9.52v3.54H51.22V2.67Z" transform="translate(-2.73 -2.1)"/><path class="cls-1" d="M67.38,2.67H82.21V6.15H71.37v5.69H81.65v3.35H71.37v6.33H82.78v3.54H67.38V2.67Z" transform="translate(-2.73 -2.1)"/><path class="cls-1" d="M92.72,15.35L84.3,2.67h4.87l5.63,9.43,5.69-9.43h4.62L96.7,15.35v9.71h-4V15.35Z" transform="translate(-2.73 -2.1)"/></svg>